<svg width="18" height="18" viewBox="0 0 18 18" fill="none" xmlns="http://www.w3.org/2000/svg"><path d="M16.6789 6.42859H1.32107C0.970701 6.42859 0.634682 6.56777 0.386933 6.81552C0.139184 7.06327 0 7.39929 0 7.74966V15.1072C0 15.8744 0.304782 16.6102 0.847298 17.1527C1.38981 17.6952 2.12562 18 2.89286 18H15.1071C15.8744 18 16.6102 17.6952 17.1527 17.1527C17.6952 16.6102 18 15.8744 18 15.1072V7.74966C18 7.39929 17.8608 7.06327 17.6131 6.81552C17.3653 6.56777 17.0293 6.42859 16.6789 6.42859ZM4.82143 13.9339C4.82143 14.1599 4.73169 14.3765 4.57195 14.5362C4.41221 14.696 4.19555 14.7857 3.96964 14.7857H3.74786C3.63573 14.7862 3.52462 14.7644 3.42091 14.7218C3.31719 14.6792 3.22291 14.6165 3.14347 14.5374C3.06404 14.4583 3.00101 14.3642 2.958 14.2607C2.91499 14.1571 2.89286 14.0461 2.89286 13.9339V13.7122C2.89243 13.6 2.91415 13.4889 2.95677 13.3852C2.99939 13.2815 3.06206 13.1872 3.1412 13.1078C3.22034 13.0283 3.31438 12.9653 3.41793 12.9223C3.52149 12.8793 3.63251 12.8572 3.74464 12.8572H3.96643C4.07856 12.8567 4.18967 12.8785 4.29338 12.9211C4.39709 12.9637 4.49137 13.0264 4.57081 13.1055C4.65025 13.1846 4.71328 13.2787 4.75628 13.3822C4.79929 13.4858 4.82143 13.5968 4.82143 13.7089V13.9339ZM4.82143 10.0768C4.82143 10.3027 4.73169 10.5194 4.57195 10.6791C4.41221 10.8388 4.19555 10.9286 3.96964 10.9286H3.74786C3.63573 10.929 3.52462 10.9073 3.42091 10.8647C3.31719 10.8221 3.22291 10.7594 3.14347 10.6802C3.06404 10.6011 3.00101 10.5071 2.958 10.4035C2.91499 10.3 2.89286 10.1889 2.89286 10.0768V9.85502C2.89243 9.74289 2.91415 9.63178 2.95677 9.52807C2.99939 9.42435 3.06206 9.33007 3.1412 9.25063C3.22034 9.1712 3.31438 9.10817 3.41793 9.06516C3.52149 9.02215 3.63251 9.00002 3.74464 9.00002H3.96643C4.07856 8.99959 4.18967 9.02131 4.29338 9.06393C4.39709 9.10655 4.49137 9.16922 4.57081 9.24836C4.65025 9.3275 4.71328 9.42154 4.75628 9.5251C4.79929 9.62865 4.82143 9.73967 4.82143 9.8518V10.0768ZM9.96429 13.9339C9.96429 14.1599 9.87454 14.3765 9.7148 14.5362C9.55506 14.696 9.33841 14.7857 9.1125 14.7857H8.89071C8.77859 14.7862 8.66748 14.7644 8.56376 14.7218C8.46005 14.6792 8.36577 14.6165 8.28633 14.5374C8.2069 14.4583 8.14387 14.3642 8.10086 14.2607C8.05785 14.1571 8.03571 14.0461 8.03571 13.9339V13.7122C8.03529 13.6 8.05701 13.4889 8.09963 13.3852C8.14224 13.2815 8.20492 13.1872 8.28406 13.1078C8.3632 13.0283 8.45724 12.9653 8.56079 12.9223C8.66434 12.8793 8.77537 12.8572 8.8875 12.8572H9.10929C9.22141 12.8567 9.33252 12.8785 9.43624 12.9211C9.53995 12.9637 9.63423 13.0264 9.71367 13.1055C9.7931 13.1846 9.85613 13.2787 9.89914 13.3822C9.94215 13.4858 9.96429 13.5968 9.96429 13.7089V13.9339ZM9.96429 10.0768C9.96429 10.3027 9.87454 10.5194 9.7148 10.6791C9.55506 10.8388 9.33841 10.9286 9.1125 10.9286H8.89071C8.77859 10.929 8.66748 10.9073 8.56376 10.8647C8.46005 10.8221 8.36577 10.7594 8.28633 10.6802C8.2069 10.6011 8.14387 10.5071 8.10086 10.4035C8.05785 10.3 8.03571 10.1889 8.03571 10.0768V9.85502C8.03529 9.74289 8.05701 9.63178 8.09963 9.52807C8.14224 9.42435 8.20492 9.33007 8.28406 9.25063C8.3632 9.1712 8.45724 9.10817 8.56079 9.06516C8.66434 9.02215 8.77537 9.00002 8.8875 9.00002H9.10929C9.22141 8.99959 9.33252 9.02131 9.43624 9.06393C9.53995 9.10655 9.63423 9.16922 9.71367 9.24836C9.7931 9.3275 9.85613 9.42154 9.89914 9.5251C9.94215 9.62865 9.96429 9.73967 9.96429 9.8518V10.0768ZM15.1071 13.9339C15.1071 14.1599 15.0174 14.3765 14.8577 14.5362C14.6979 14.696 14.4813 14.7857 14.2554 14.7857H14.0336C13.9214 14.7862 13.8103 14.7644 13.7066 14.7218C13.6029 14.6792 13.5086 14.6165 13.4292 14.5374C13.3498 14.4583 13.2867 14.3642 13.2437 14.2607C13.2007 14.1571 13.1786 14.0461 13.1786 13.9339V13.7122C13.1781 13.6 13.1999 13.4889 13.2425 13.3852C13.2851 13.2815 13.3478 13.1872 13.4269 13.1078C13.5061 13.0283 13.6001 12.9653 13.7036 12.9223C13.8072 12.8793 13.9182 12.8572 14.0304 12.8572H14.2521C14.3643 12.8567 14.4754 12.8785 14.5791 12.9211C14.6828 12.9637 14.7771 13.0264 14.8565 13.1055C14.936 13.1846 14.999 13.2787 15.042 13.3822C15.085 13.4858 15.1071 13.5968 15.1071 13.7089V13.9339ZM15.1071 10.0768C15.1071 10.3027 15.0174 10.5194 14.8577 10.6791C14.6979 10.8388 14.4813 10.9286 14.2554 10.9286H14.0336C13.9214 10.929 13.8103 10.9073 13.7066 10.8647C13.6029 10.8221 13.5086 10.7594 13.4292 10.6802C13.3498 10.6011 13.2867 10.5071 13.2437 10.4035C13.2007 10.3 13.1786 10.1889 13.1786 10.0768V9.85502C13.1781 9.74289 13.1999 9.63178 13.2425 9.52807C13.2851 9.42435 13.3478 9.33007 13.4269 9.25063C13.5061 9.1712 13.6001 9.10817 13.7036 9.06516C13.8072 9.02215 13.9182 9.00002 14.0304 9.00002H14.2521C14.3643 8.99959 14.4754 9.02131 14.5791 9.06393C14.6828 9.10655 14.7771 9.16922 14.8565 9.24836C14.936 9.3275 14.999 9.42154 15.042 9.5251C15.085 9.62865 15.1071 9.73967 15.1071 9.8518V10.0768Z" fill="#D91967"/><path d="M16.83 1.28571H15.4286C15.4286 0.944722 15.2931 0.617695 15.052 0.376577C14.8109 0.135459 14.4838 0 14.1429 0C13.8019 0 13.4748 0.135459 13.2337 0.376577C12.9926 0.617695 12.8571 0.944722 12.8571 1.28571V1.92857C12.8571 2.09907 12.7894 2.26258 12.6689 2.38314C12.5483 2.5037 12.3848 2.57143 12.2143 2.57143C12.0438 2.57143 11.8803 2.5037 11.7597 2.38314C11.6392 2.26258 11.5714 2.09907 11.5714 1.92857V1.79679C11.5714 1.66124 11.5176 1.53125 11.4217 1.4354C11.3259 1.33956 11.1959 1.28571 11.0604 1.28571H5.14286C5.14286 0.944722 5.0074 0.617695 4.76628 0.376577C4.52516 0.135459 4.19814 0 3.85714 0C3.51615 0 3.18912 0.135459 2.94801 0.376577C2.70689 0.617695 2.57143 0.944722 2.57143 1.28571V1.92857C2.57143 2.09907 2.5037 2.26258 2.38314 2.38314C2.26258 2.5037 2.09907 2.57143 1.92857 2.57143C1.75808 2.57143 1.59456 2.5037 1.474 2.38314C1.35344 2.26258 1.28571 2.09907 1.28571 1.92857V1.28571H1.17C0.859697 1.28571 0.562103 1.40898 0.342685 1.6284C0.123267 1.84782 0 2.14541 0 2.45571V4.5C0 4.6705 0.0677294 4.83401 0.188288 4.95457C0.308848 5.07513 0.472361 5.14286 0.642857 5.14286H17.3571C17.5276 5.14286 17.6912 5.07513 17.8117 4.95457C17.9323 4.83401 18 4.6705 18 4.5V2.45571C18 2.14541 17.8767 1.84782 17.6573 1.6284C17.4379 1.40898 17.1403 1.28571 16.83 1.28571Z" fill="#D91967"/></svg>