<svg width="150" height="150" viewBox="0 0 150 150" fill="none" xmlns="http://www.w3.org/2000/svg"><path fill-rule="evenodd" clip-rule="evenodd" d="M7 72.9951C7 62.4171 9.43322 52.4074 13.7705 43.4951H14.8849C10.4775 52.3846 8 62.4005 8 72.9951C8 87.3433 12.5441 100.63 20.2717 111.495H19.049C11.4531 100.575 7 87.3052 7 72.9951ZM129.951 111.495C137.547 100.575 142 87.3052 142 72.9951C142 62.4171 139.567 52.4074 135.23 43.4951H134.115C138.522 52.3846 141 62.4005 141 72.9951C141 87.3433 136.456 100.63 128.728 111.495H129.951Z" fill="#000"/><path d="M30.3288 37.861L24.2625 31.6137L22.2437 33.574L21.3854 32.6901L26.3471 27.8722L27.2054 28.7561L25.1765 30.7261L31.2428 36.9735L30.3288 37.861Z" fill="#000"/><path d="M39.8705 28.214C39.5976 29.5661 38.8683 30.64 37.6825 31.4357C36.4968 32.2314 35.2266 32.4992 33.8719 32.2393C32.5121 31.9716 31.4317 31.241 30.6308 30.0475C29.83 28.8539 29.566 27.5811 29.8389 26.2291C30.1066 24.8692 30.8333 23.7915 32.0191 22.9958C33.2048 22.2001 34.4776 21.9361 35.8375 22.2038C37.1921 22.4637 38.2699 23.1905 39.0708 24.384C39.8716 25.5775 40.1382 26.8542 39.8705 28.214ZM34.1439 31.0115C35.1515 31.2233 36.1048 31.0276 37.0039 30.4243C37.9029 29.821 38.4453 29.013 38.6313 28.0003C38.812 26.9799 38.5981 26.0162 37.9896 25.1095C37.3811 24.2027 36.5731 23.6434 35.5655 23.4316C34.5527 23.212 33.5968 23.4039 32.6977 24.0072C31.7987 24.6104 31.2589 25.4223 31.0782 26.4428C30.8922 27.4555 31.1035 28.4152 31.712 29.322C32.3205 30.2287 33.1311 30.7919 34.1439 31.0115Z" fill="#000"/><path d="M49.2394 24.6518L45.6423 16.7215L41.0524 18.8034L44.6495 26.7337L43.4892 27.26L39.3832 18.2077L46.2936 15.0732L50.3996 24.1256L49.2394 24.6518Z" fill="#000"/><path d="M57.5835 20.8037C57.0136 20.9486 56.4466 20.9531 55.8824 20.8173C55.3159 20.6724 54.8349 20.4095 54.4395 20.0285L55.1591 19.1088C55.4137 19.3908 55.7303 19.5944 56.1089 19.7196C56.4942 19.8335 56.8903 19.8387 57.2974 19.7353C57.9034 19.5812 58.3526 19.2647 58.645 18.7859C58.9441 18.2958 59.0143 17.7386 58.8557 17.1145C58.697 16.4903 58.368 16.0299 57.8688 15.733C57.3764 15.4249 56.8045 15.3536 56.1532 15.5192L55.2984 15.7365L56.3867 11.8918L53.0081 12.7508L52.7322 11.6653L57.9153 10.3476L56.7937 14.3452C57.6244 14.317 58.3259 14.5383 58.8982 15.0091C59.4796 15.4776 59.8634 16.0782 60.0497 16.8109C60.2796 17.7155 60.1687 18.5478 59.7167 19.308C59.2624 20.059 58.5513 20.5576 57.5835 20.8037Z" fill="#000"/><path d="M65.2406 19.4015C64.6537 19.4366 64.0959 19.3343 63.5674 19.0948C63.0383 18.8459 62.6154 18.4972 62.2987 18.0486L63.1785 17.2807C63.3755 17.6056 63.6482 17.8651 63.9964 18.0593C64.3533 18.2437 64.7415 18.3234 65.1607 18.2983C65.7849 18.261 66.2857 18.0348 66.6629 17.6195C67.0489 17.1944 67.2227 16.6604 67.1843 16.0176C67.1459 15.3747 66.9095 14.8606 66.475 14.4751C66.0494 14.0798 65.5011 13.9022 64.8303 13.9423L63.9499 13.9949L65.7421 10.4236L62.2623 10.6316L62.1955 9.51355L67.534 9.19458L65.6802 12.9098C66.5014 13.0383 67.1487 13.3877 67.6222 13.9578C68.105 14.5273 68.369 15.1894 68.4141 15.9441C68.4698 16.8758 68.2041 17.6724 67.6172 18.3339C67.0297 18.9861 66.2375 19.342 65.2406 19.4015Z" fill="#000"/><path d="M76.4787 18.0625L77.3683 8.16235L78.6372 8.27638L78.1911 13.2404L83.155 8.68236L84.7167 8.8227L79.6908 13.4454L84.2035 18.7566L82.5163 18.605L78.1698 13.4774L77.7476 18.1765L76.4787 18.0625Z" fill="#000"/><path d="M87.0946 18.9227L88.8458 16.9019L86.8457 8.6573L88.2091 8.97556L89.8467 15.7554L94.4668 10.4364L95.7484 10.7356L88.3761 19.2218L87.0946 18.9227Z" fill="#000"/><path d="M94.2525 20.729L99.5801 17.5437L98.4394 11.712L99.7838 12.3066L100.701 16.983L104.777 14.515L106.122 15.1096L101.065 18.2006L102.28 24.2795L100.962 23.6962L99.9434 18.73L95.6097 21.3293L94.2525 20.729Z" fill="#000"/><path d="M105.254 25.2306L110.958 17.0898L112.001 17.8209L109.567 21.295L114.062 24.4441L116.496 20.97L117.539 21.701L111.835 29.8417L110.792 29.1107L113.355 25.4531L108.86 22.304L106.297 25.9616L105.254 25.2306Z" fill="#000"/><path d="M115.092 32.6472L122.167 25.5071L123.072 26.4039L118.096 31.4258L128.183 31.3106L121.107 38.4507L120.202 37.554L125.179 32.532L115.092 32.6472Z" fill="#000"/><path d="M113.896 118.916L119.455 127.156L117.122 128.73C116.255 129.314 115.409 129.553 114.583 129.447C113.761 129.347 113.09 128.911 112.568 128.137C112.051 127.371 111.898 126.585 112.108 125.779C112.319 124.973 112.857 124.277 113.724 123.693L115.001 122.832L112.84 119.628L113.896 118.916ZM115.658 123.807L114.417 124.644C113.828 125.041 113.468 125.475 113.336 125.947C113.21 126.427 113.313 126.914 113.647 127.409C113.981 127.904 114.392 128.179 114.879 128.233C115.371 128.295 115.911 128.128 116.499 127.731L117.741 126.894L115.658 123.807Z" fill="#000"/><path d="M105.432 124.536L109.427 133.638L106.722 134.825C105.32 135.44 103.973 135.517 102.68 135.055C101.378 134.597 100.44 133.714 99.866 132.406C99.2921 131.098 99.2773 129.811 99.8215 128.542C100.357 127.278 101.326 126.338 102.727 125.723L105.432 124.536ZM104.744 126.137L103.206 126.812C102.112 127.293 101.37 128.006 100.98 128.951C100.589 129.897 100.616 130.874 101.058 131.883C101.501 132.891 102.202 133.572 103.162 133.925C104.123 134.279 105.15 134.215 106.244 133.735L107.782 133.06L104.744 126.137Z" fill="#000"/><path d="M94.2183 129.143L96.5872 138.796L91.1757 140.124L90.8821 138.928L95.0563 137.903L94.3389 134.98L91.0757 135.781L90.7821 134.584L94.0453 133.784L92.981 129.446L94.2183 129.143Z" fill="#000"/><path d="M81.6269 131.666L77.8918 135.955C78.0683 135.922 78.2219 135.904 78.3525 135.9C79.1834 135.896 79.8817 136.172 80.4476 136.726C81.0042 137.28 81.2932 137.954 81.3147 138.747C81.3375 139.587 81.0674 140.299 80.5044 140.884C79.9416 141.478 79.2357 141.786 78.3867 141.81C77.5377 141.833 76.8161 141.563 76.2219 141C75.6187 140.447 75.3057 139.75 75.283 138.911C75.2673 138.332 75.3832 137.787 75.6308 137.277C75.8784 136.766 76.3055 136.161 76.9121 135.463L79.1382 132.854L75.1217 132.963L75.0913 131.843L81.6269 131.666ZM79.5849 137.449C79.2301 137.104 78.7868 136.939 78.255 136.953C77.7232 136.968 77.2895 137.157 76.9539 137.521C76.6183 137.885 76.4579 138.337 76.4725 138.878C76.4869 139.41 76.6716 139.849 77.0264 140.194C77.3815 140.548 77.8249 140.718 78.3567 140.704C78.8885 140.689 79.3221 140.496 79.6574 140.122C79.9837 139.759 80.1396 139.311 80.1252 138.779C80.1105 138.238 79.9304 137.795 79.5849 137.449Z" fill="#000"/><path d="M72.6721 129.739L71.9232 131.677L72.6352 131.73L72.5065 133.447L70.8033 133.32L70.933 131.589L71.8764 129.68L72.6721 129.739Z" fill="#000"/><path d="M68.1918 131.425L62.4514 139.344L67.0792 140.187L66.8785 141.289L60.4739 140.122L66.9384 131.196L68.1918 131.425Z" fill="#000"/><path d="M55.4307 128.657L51.246 137.797L49.0623 130.931L42.4374 133.764L46.6221 124.624L47.7805 125.155L44.9013 131.443L49.8083 129.301L51.3932 134.415L54.2724 128.127L55.4307 128.657Z" fill="#000"/><path d="M36.7867 128.829L38.4967 126.454L36.6223 125.104C35.8195 124.526 35.3301 123.84 35.1542 123.046C34.9729 122.26 35.1386 121.511 35.6513 120.799C36.175 120.072 36.8529 119.698 37.6852 119.676C38.5175 119.654 39.3691 119.957 40.24 120.584L42.9097 122.507L37.1004 130.573L32.2382 127.071L32.9583 126.071L36.7867 128.829ZM41.1804 122.728L39.3628 121.419C38.8099 121.021 38.2958 120.84 37.8204 120.878C37.3451 120.915 36.9574 121.142 36.6574 121.558C36.3519 121.982 36.2579 122.432 36.3754 122.908C36.4853 123.378 36.8129 123.81 37.3582 124.202L39.1758 125.511L41.1804 122.728Z" fill="#000"/></svg>