<svg width="19" height="23" viewBox="0 0 19 23" fill="none" xmlns="http://www.w3.org/2000/svg"><path d="M17.5751 12.8609C17.5751 17.4154 13.958 21.1082 9.50233 21.1082C5.0467 21.1082 1.42956 17.4108 1.42956 12.8564C1.42956 8.30194 5.0467 4.60915 9.50233 4.60915C10.1357 4.60915 10.769 4.68665 11.3845 4.8371L8.78872 7.49044L9.7967 8.52077L13.9624 4.25811L9.80116 0L8.78872 1.03033L10.9875 3.26425C5.80491 2.42083 0.938945 6.03612 0.118287 11.3337C-0.702371 16.6312 2.83449 21.6006 8.01712 22.4394C13.1998 23.2783 18.0613 19.663 18.8819 14.3654C18.9577 13.8685 18.9979 13.3624 18.9979 12.8564H17.5751V12.8609Z" fill="#D91967"/></svg>