<svg width="37" height="30" viewBox="0 0 37 30" fill="none" xmlns="http://www.w3.org/2000/svg"><path d="M-3 19.2528V16.9264H4.49519V9.58597H6.82264V16.9264H14.2784V19.2528H6.82264V26.7938H4.49519V19.2528H-3Z" fill="#D91967"/><path d="M27.2507 29.401C25.5939 29.401 24.0554 29.0266 22.6353 28.2779C21.2414 27.5291 20.15 26.513 19.3611 25.2294L21.4913 23.5849C22.0435 24.5475 22.8194 25.323 23.8187 25.9113C24.8444 26.4996 25.9752 26.7938 27.2113 26.7938C29.0785 26.7938 30.6433 26.1921 31.9056 24.9888C33.168 23.7587 33.7992 22.1542 33.7992 20.1754C33.7992 18.1698 33.168 16.552 31.9056 15.3219C30.6433 14.0651 28.9996 13.4367 26.9746 13.4367H24.6866L30.8405 3.20826H20.4656V0.601013H35.1799L28.8681 11.1102C31.3402 11.5381 33.2469 12.581 34.5881 14.2389C35.9294 15.8968 36.6 17.8757 36.6 20.1754C36.6 22.8495 35.719 25.0556 33.957 26.7938C32.2212 28.5319 29.9858 29.401 27.2507 29.401Z" fill="#D91967"/></svg>