<svg width="10" height="8" viewBox="0 0 10 8" fill="none" xmlns="http://www.w3.org/2000/svg"><path d="M9.62813 1.39574L8.78219 0.567832C8.66813 0.456205 8.52556 0.400391 8.36397 0.400391C8.20239 0.400391 8.05981 0.456205 7.94575 0.567832L3.87763 4.54923L2.06219 2.76318C1.94813 2.65155 1.80556 2.59574 1.64397 2.59574C1.48239 2.59574 1.33981 2.65155 1.22575 2.76318L0.379813 3.59109C0.256248 3.70272 0.199219 3.84225 0.199219 4.00039C0.199219 4.15853 0.256248 4.29806 0.370308 4.40969L2.61348 6.60504L3.45942 7.43295C3.57348 7.54458 3.71605 7.60039 3.87763 7.60039C4.03922 7.60039 4.18179 7.54458 4.29585 7.43295L5.14179 6.60504L9.62813 2.21434C9.74219 2.10272 9.79922 1.96318 9.79922 1.80504C9.79922 1.6469 9.74219 1.50737 9.62813 1.39574Z" fill="#fff"/></svg>