<svg width="14" height="18" viewBox="0 0 14 18" fill="none" xmlns="http://www.w3.org/2000/svg"><path d="M12.4244 8.2C12.1944 7.9 11.9244 7.64 11.6644 7.38C11.0144 6.78 10.2644 6.35 9.63436 5.72C8.17436 4.26 7.87436 1.85 8.78436 0C7.87436 0.23 7.03436 0.75 6.33436 1.32C3.79436 3.4 2.79436 7.07 3.99436 10.22C4.03436 10.32 4.07436 10.42 4.07436 10.55C4.07436 10.77 3.92436 10.97 3.72436 11.05C3.50436 11.15 3.26436 11.09 3.08436 10.93C3.02436 10.88 2.98436 10.83 2.93436 10.76C1.83436 9.33 1.65436 7.28 2.40436 5.64C0.764361 7 -0.125639 9.3 0.014361 11.47C0.054361 11.97 0.114361 12.47 0.284361 12.97C0.424361 13.57 0.684361 14.17 1.00436 14.7C2.04436 16.43 3.87436 17.67 5.84436 17.92C7.94436 18.19 10.1944 17.8 11.8044 16.32C13.6044 14.66 14.2544 12 13.3044 9.72L13.1744 9.46C12.9744 9 12.7044 8.59 12.3744 8.21L12.4244 8.2ZM9.32436 14.5C9.04436 14.74 8.59436 15 8.24436 15.1C7.14436 15.5 6.04436 14.94 5.37436 14.28C6.56436 14 7.26436 13.12 7.46436 12.23C7.63436 11.43 7.32436 10.77 7.19436 10C7.07436 9.26 7.09436 8.63 7.37436 7.94C7.54436 8.32 7.74436 8.7 7.97436 9C8.73436 10 9.92436 10.44 10.1744 11.8C10.2144 11.94 10.2344 12.08 10.2344 12.23C10.2644 13.05 9.91436 13.95 9.31436 14.5H9.32436Z" fill="#fff"/></svg>