<svg width="50" height="48" viewBox="0 0 50 48" fill="none" xmlns="http://www.w3.org/2000/svg"><g clip-path="url(#clip0_211_5359)"><path d="M3.67526 3.30546C-0.241844 7.37396 0.559494 11.6936 0.559494 24.8259C0.559494 35.7298 -1.34307 46.6609 8.61474 49.234C11.7247 50.0343 39.2759 50.0343 42.3819 49.234C46.5278 48.1631 49.9007 44.8014 50.3661 38.9386C50.4303 38.1208 50.4303 11.5544 50.3661 10.7191C49.8792 4.4747 46.0303 0.874489 40.9642 0.146269C39.7987 -0.0260511 39.5651 -0.0757025 33.6071 -0.0864117C12.4763 -0.0757025 7.84456 -1.01713 3.67526 3.30546Z" fill="url(#paint0_linear_211_5359)"/><path d="M12.4273 29.7565L14.3558 20.7707C13.7651 21.0119 13.3069 21.3736 12.9811 21.856C12.6554 22.3383 12.4925 22.9391 12.4925 23.6583C12.4925 23.8262 12.5012 23.9641 12.5185 24.0717C12.5402 24.1751 12.562 24.2591 12.5837 24.3237C12.6054 24.384 12.6249 24.4313 12.6423 24.4658C12.664 24.5002 12.6749 24.5304 12.6749 24.5562C12.4447 24.5562 12.2405 24.5347 12.0625 24.4916C11.8844 24.4443 11.7345 24.371 11.6129 24.272C11.4956 24.1729 11.4044 24.0416 11.3393 23.8779C11.2785 23.7143 11.248 23.5119 11.248 23.2707C11.248 22.9778 11.311 22.6893 11.437 22.4051C11.5673 22.1208 11.7432 21.8516 11.9647 21.5976C12.1906 21.3435 12.4534 21.1088 12.7531 20.8934C13.0571 20.6781 13.3807 20.4929 13.7239 20.3379C14.0713 20.1785 14.4319 20.0558 14.8054 19.9696C15.1833 19.8792 15.559 19.834 15.9325 19.834C16.0324 19.834 16.1237 19.8361 16.2062 19.8404C16.2931 19.8448 16.3799 19.8512 16.4668 19.8598L14.3428 29.7565H12.4273Z" fill="#fff"/><path d="M23.871 27.3857C23.6843 27.9283 23.4823 28.3612 23.2651 28.6841C23.0523 29.0071 22.8351 29.2548 22.6136 29.427C22.3964 29.595 22.1814 29.7048 21.9686 29.7565C21.7601 29.8082 21.5668 29.834 21.3887 29.834C21.0934 29.834 20.8458 29.7931 20.646 29.7113C20.4462 29.6252 20.2855 29.5132 20.1638 29.3754C20.0422 29.2332 19.9532 29.0739 19.8967 28.8973C19.8446 28.7164 19.8185 28.5313 19.8185 28.3418C19.8185 28.1178 19.8489 27.8573 19.9097 27.5601C19.9749 27.2586 20.0444 26.9507 20.1182 26.6363C20.1921 26.322 20.2594 26.0183 20.3202 25.7255C20.3854 25.4326 20.4179 25.1807 20.4179 24.9697C20.4179 24.5175 20.2572 24.2914 19.9358 24.2914C19.8142 24.2914 19.7012 24.3237 19.597 24.3883C19.4928 24.4529 19.3972 24.5412 19.3103 24.6531C19.2235 24.7608 19.1453 24.89 19.0758 25.0407C19.0063 25.1872 18.9455 25.3443 18.8934 25.5123L17.9877 29.7565H16.0657L17.4795 23.1415H19.4015L19.2582 23.8262C19.4015 23.6669 19.5427 23.5399 19.6817 23.4451C19.825 23.3461 19.964 23.2707 20.0987 23.219C20.2333 23.1673 20.3593 23.1329 20.4766 23.1157C20.5982 23.0984 20.7111 23.0898 20.8154 23.0898C21.0282 23.0898 21.2258 23.1178 21.4083 23.1738C21.5907 23.2298 21.7471 23.3181 21.8774 23.4387C22.012 23.5592 22.1163 23.7143 22.1901 23.9038C22.2639 24.0933 22.3009 24.3194 22.3009 24.5821C22.3009 24.7586 22.2835 24.9503 22.2487 25.157C22.2183 25.3594 22.1792 25.5683 22.1315 25.7836C22.0837 25.9946 22.0316 26.2057 21.9751 26.4167C21.923 26.6277 21.873 26.8301 21.8252 27.0239C21.7775 27.2177 21.7362 27.3986 21.7014 27.5666C21.671 27.7302 21.6558 27.8745 21.6558 27.9994C21.6558 28.163 21.6928 28.2966 21.7666 28.3999C21.8448 28.5033 21.9859 28.5549 22.1901 28.5549C22.3334 28.5549 22.4594 28.527 22.568 28.471C22.6766 28.415 22.7743 28.3353 22.8612 28.232C22.948 28.1286 23.0262 28.0059 23.0957 27.8637C23.1696 27.7173 23.2412 27.558 23.3107 27.3857H23.871Z" fill="#fff"/><path d="M29.3663 27.3857C29.0188 27.7862 28.6692 28.1178 28.3173 28.3805C27.9699 28.6389 27.6397 28.8586 27.327 29.0394C27.188 29.1859 27.0317 29.3108 26.8579 29.4141C26.6885 29.5132 26.5104 29.595 26.3237 29.6596C26.1412 29.7199 25.9545 29.763 25.7633 29.7888C25.5766 29.819 25.3985 29.834 25.2291 29.834C24.8946 29.834 24.6036 29.7845 24.356 29.6854C24.1128 29.5821 23.9108 29.4507 23.7501 29.2914C23.5894 29.1277 23.4721 28.9469 23.3983 28.7487C23.3201 28.5463 23.281 28.3439 23.281 28.1415C23.281 27.9865 23.3027 27.8444 23.3462 27.7152C23.3853 27.5816 23.4374 27.4632 23.5025 27.3599C23.5677 27.2565 23.6415 27.1682 23.7241 27.095C23.8109 27.0175 23.9 26.9572 23.9912 26.9141C24.3647 26.2509 24.6796 25.5963 24.9359 24.9503C25.1922 24.3 25.4245 23.6475 25.633 22.9929L27.6072 22.7345C27.6332 23.3073 27.6571 23.8047 27.6788 24.2268C27.7049 24.6445 27.7288 25.0084 27.7505 25.3185C27.7722 25.6243 27.7918 25.8848 27.8091 26.1002C27.8265 26.3155 27.8417 26.5071 27.8547 26.6751C27.8721 26.8388 27.883 26.9895 27.8873 27.1273C27.896 27.2608 27.9004 27.4008 27.9004 27.5472C27.9004 27.6462 27.896 27.7367 27.8873 27.8185C27.883 27.9003 27.87 27.9779 27.8482 28.0511C28.0437 27.9391 28.2196 27.8293 28.376 27.7216C28.5367 27.6096 28.68 27.4977 28.806 27.3857H29.3663ZM23.9912 27.8637C23.9912 28.1738 24.052 28.4064 24.1736 28.5614C24.2996 28.7121 24.5102 28.7875 24.8056 28.7875C24.9533 28.7875 25.0966 28.7681 25.2356 28.7294C25.3746 28.6863 25.4984 28.6174 25.607 28.5227C25.7156 28.4236 25.8024 28.2966 25.8676 28.1415C25.9327 27.9865 25.9653 27.7927 25.9653 27.5601C25.9653 27.4481 25.961 27.3405 25.9523 27.2371C25.9479 27.1294 25.9414 27.0175 25.9327 26.9012C25.9241 26.7806 25.911 26.6471 25.8936 26.5007C25.8806 26.3543 25.8632 26.1841 25.8415 25.9903C25.8241 25.7965 25.8046 25.5726 25.7829 25.3185C25.7612 25.0644 25.7373 24.7673 25.7112 24.427C25.5766 24.8577 25.418 25.2754 25.2356 25.6803C25.0532 26.0851 24.8512 26.5007 24.6297 26.927C24.7165 26.9744 24.7882 27.0347 24.8447 27.1079C24.9055 27.1811 24.9359 27.2737 24.9359 27.3857C24.9359 27.4675 24.9229 27.5472 24.8968 27.6247C24.8707 27.7022 24.8317 27.7733 24.7795 27.8379C24.7274 27.8982 24.6644 27.9477 24.5906 27.9865C24.5211 28.0209 24.4407 28.0382 24.3495 28.0382C24.2757 28.0382 24.2062 28.0274 24.141 28.0059C24.0759 27.9843 24.0259 27.9369 23.9912 27.8637Z" fill="#fff"/><path d="M33.3305 27.3857C33.2045 27.7431 33.0633 28.0532 32.907 28.3159C32.7549 28.5786 32.5942 28.8004 32.4248 28.9813C32.2598 29.1622 32.0882 29.3086 31.9101 29.4206C31.7364 29.5326 31.567 29.6187 31.4019 29.679C31.2369 29.7393 31.0783 29.7802 30.9263 29.8017C30.7786 29.8233 30.6462 29.834 30.5289 29.834C30.3291 29.834 30.1423 29.8039 29.9686 29.7436C29.7948 29.6833 29.6428 29.5885 29.5125 29.4593C29.3865 29.3301 29.2866 29.1665 29.2128 28.9684C29.139 28.7703 29.102 28.5313 29.102 28.2513C29.102 28.1307 29.1107 27.9994 29.1281 27.8573C29.1455 27.7108 29.1715 27.5537 29.2063 27.3857L30.0077 23.6712H29.5646L29.6754 23.1415H30.1119L30.5159 21.3133L32.49 21.0485L32.0339 23.1415H32.8353L32.7311 23.6712H31.9297L31.0762 27.6376C31.0545 27.7108 31.0393 27.7841 31.0306 27.8573C31.0262 27.9262 31.024 27.9951 31.024 28.064C31.024 28.2492 31.0675 28.3784 31.1544 28.4516C31.2412 28.5205 31.378 28.5549 31.5648 28.5549C31.6951 28.5549 31.8211 28.527 31.9427 28.471C32.0687 28.4107 32.1838 28.3289 32.288 28.2255C32.3923 28.1221 32.4856 27.9994 32.5682 27.8573C32.6507 27.7108 32.718 27.5537 32.7701 27.3857H33.3305Z" fill="#fff"/><path d="M38.6237 27.6376C38.602 27.7108 38.5868 27.7841 38.5781 27.8573C38.5695 27.9262 38.5651 27.9951 38.5651 28.064C38.5651 28.2492 38.6085 28.3784 38.6954 28.4516C38.7866 28.5205 38.9256 28.5549 39.1124 28.5549C39.1732 28.5549 39.2275 28.5506 39.2753 28.542C39.3231 28.5334 39.3665 28.5183 39.4056 28.4968C39.3144 28.7251 39.2275 28.9232 39.145 29.0911C39.0624 29.2591 38.9712 29.3991 38.8713 29.511C38.7714 29.6187 38.6563 29.7005 38.526 29.7565C38.4001 29.8082 38.2502 29.834 38.0765 29.834C37.7073 29.834 37.4097 29.7285 37.1839 29.5175C36.958 29.3022 36.819 28.9985 36.7669 28.6066C36.667 28.7574 36.5497 28.9059 36.4151 29.0524C36.2848 29.1988 36.1371 29.3301 35.972 29.4464C35.8113 29.5627 35.6311 29.6575 35.4313 29.7307C35.2315 29.7996 35.0143 29.834 34.7797 29.834C34.5495 29.834 34.328 29.7974 34.1152 29.7242C33.9023 29.651 33.7134 29.5304 33.5483 29.3624C33.3833 29.1945 33.2508 28.9748 33.1509 28.7035C33.051 28.4322 33.001 28.1006 33.001 27.7087C33.001 27.4072 33.0315 27.0842 33.0923 26.7397C33.1531 26.3952 33.2465 26.0506 33.3724 25.7061C33.4984 25.3616 33.6548 25.0321 33.8415 24.7177C34.0326 24.399 34.2542 24.1191 34.5061 23.8779C34.7624 23.6324 35.0512 23.4387 35.3726 23.2965C35.694 23.1501 36.048 23.0769 36.4346 23.0769C36.8125 23.0769 37.0861 23.1415 37.2555 23.2707C37.4293 23.3999 37.5161 23.5592 37.5161 23.7487V23.8456L37.6595 23.1415H39.5815L38.6237 27.6376ZM37.3924 24.4012C37.3924 24.3624 37.3837 24.3151 37.3663 24.2591C37.3489 24.1988 37.3185 24.1428 37.2751 24.0911C37.236 24.0351 37.1817 23.9899 37.1122 23.9554C37.0427 23.9167 36.9537 23.8973 36.8451 23.8973C36.6583 23.8973 36.4802 23.9576 36.3108 24.0782C36.1458 24.1988 35.9937 24.3603 35.8547 24.5627C35.7158 24.7608 35.592 24.9869 35.4834 25.241C35.3748 25.4951 35.2814 25.7578 35.2032 26.0291C35.1294 26.2961 35.0729 26.561 35.0338 26.8237C34.9947 27.0821 34.9752 27.3146 34.9752 27.5214C34.9752 27.7754 34.9991 27.9714 35.0469 28.1092C35.0946 28.247 35.1511 28.3504 35.2162 28.4193C35.2857 28.4839 35.3596 28.5227 35.4378 28.5356C35.516 28.5485 35.5854 28.5549 35.6463 28.5549C35.7462 28.5549 35.8504 28.5313 35.959 28.4839C36.0719 28.4322 36.1783 28.359 36.2782 28.2643C36.3825 28.1652 36.4759 28.0425 36.5584 27.896C36.6453 27.7496 36.7104 27.5795 36.7539 27.3857L37.3924 24.4012Z" fill="#fff"/></g><defs><linearGradient id="paint0_linear_211_5359" x1="3.953" y1="46.361" x2="50.27" y2="6.262" gradientUnits="userSpaceOnUse"><stop stop-color="#FD5"/><stop offset=".5" stop-color="#FF543E"/><stop offset="1" stop-color="#C837AB"/></linearGradient><clipPath id="clip0_211_5359"><rect x=".998" width="49" height="48" rx="24" fill="#fff"/></clipPath></defs></svg>