<svg width="26" height="13" viewBox="0 0 26 13" fill="none" xmlns="http://www.w3.org/2000/svg"><path d="M0 0.176391H4.9495C6.13001 0.176391 7.11761 0.57327 7.91229 1.36703C8.71274 2.15491 9.11296 3.11624 9.11296 4.25102C9.11296 5.37992 8.71274 6.33831 7.91229 7.12619C7.11761 7.91407 6.13001 8.30801 4.9495 8.30801H1.94352V12.8236H0V0.176391ZM4.9495 1.9844H1.94352V6.5H4.9495C5.55991 6.5 6.08106 6.28539 6.51296 5.85617C6.94485 5.42108 7.1608 4.88602 7.1608 4.25102C7.1608 3.61013 6.94485 3.07214 6.51296 2.63704C6.08106 2.20194 5.55991 1.9844 4.9495 1.9844Z" fill="#fff"/><path d="M14.5807 3.96879C14.8975 3.96879 15.2055 4.00995 15.505 4.09227C15.8102 4.1687 16.0664 4.26572 16.2738 4.38331C16.4868 4.49503 16.6769 4.61262 16.8439 4.73609C17.0109 4.85369 17.1289 4.94776 17.198 5.01832L17.3189 5.15061V0.176391H19.0897V12.8236H17.3189V11.827C17.2383 11.9093 17.1231 12.0181 16.9734 12.1533C16.8295 12.2886 16.5185 12.4649 16.0405 12.6825C15.5626 12.8942 15.076 13 14.5807 13C13.4578 13 12.4846 12.562 11.6611 11.6859C10.8377 10.8039 10.4259 9.73677 10.4259 8.4844C10.4259 7.23202 10.8377 6.1678 11.6611 5.29172C12.4846 4.40977 13.4578 3.96879 14.5807 3.96879ZM12.9654 10.5305C13.4895 11.095 14.0855 11.3772 14.7535 11.3772C15.4272 11.3772 16.0233 11.095 16.5415 10.5305C17.0598 9.96608 17.3189 9.28697 17.3189 8.49322C17.3189 7.69358 17.0598 7.01153 16.5415 6.44708C16.0233 5.88263 15.4272 5.60041 14.7535 5.60041C14.0855 5.60041 13.4895 5.88263 12.9654 6.44708C12.4472 7.01153 12.188 7.69358 12.188 8.49322C12.188 9.28697 12.4472 9.96608 12.9654 10.5305Z" fill="#fff"/><path d="M26 4.154V5.7768H24.0478V12.8236H22.2857V5.7768H21.0419V4.154H22.2857V2.7076C22.2857 0.902533 23.1092 0 24.7561 0C24.9692 0 25.1794 0.0146992 25.3867 0.0440977C25.594 0.0734962 25.7437 0.105834 25.8359 0.141113L26 0.176391V1.80801C25.7063 1.69041 25.4097 1.62867 25.1103 1.6228C24.8051 1.6228 24.5517 1.72569 24.3502 1.93148C24.1486 2.13727 24.0478 2.40185 24.0478 2.72524V4.154H26Z" fill="#fff"/></svg>