<svg width="9" height="9" viewBox="0 0 9 9" fill="none" xmlns="http://www.w3.org/2000/svg"><path d="M8.72591 1.54357L5.76948 4.5L8.72591 7.45643C8.81166 7.53925 8.88006 7.63832 8.92711 7.74785C8.97416 7.85739 8.99893 7.9752 8.99997 8.09441C9.001 8.21361 8.97829 8.33183 8.93314 8.44217C8.888 8.5525 8.82134 8.65275 8.73704 8.73704C8.65275 8.82134 8.5525 8.888 8.44217 8.93314C8.33183 8.97829 8.21361 9.001 8.09441 8.99997C7.9752 8.99893 7.85739 8.97416 7.74785 8.92711C7.63832 8.88006 7.53925 8.81166 7.45643 8.72591L4.5 5.76948L1.54357 8.72591C1.46075 8.81166 1.36168 8.88006 1.25215 8.92711C1.14261 8.97416 1.0248 8.99893 0.905595 8.99997C0.786386 9.001 0.668165 8.97829 0.55783 8.93314C0.447494 8.888 0.347254 8.82134 0.262957 8.73704C0.178661 8.65275 0.111997 8.5525 0.0668554 8.44217C0.0217135 8.33183 -0.00100199 8.21361 3.3898e-05 8.09441C0.00106979 7.9752 0.0258366 7.85739 0.072889 7.74785C0.119941 7.63832 0.188338 7.53925 0.274086 7.45643L3.23052 4.5L0.274086 1.54357C0.188338 1.46075 0.119941 1.36168 0.072889 1.25215C0.0258366 1.14261 0.00106979 1.0248 3.3898e-05 0.905595C-0.00100199 0.786386 0.0217135 0.668165 0.0668554 0.55783C0.111997 0.447494 0.178661 0.347254 0.262957 0.262957C0.347254 0.178661 0.447494 0.111997 0.55783 0.0668554C0.668165 0.0217135 0.786386 -0.00100199 0.905595 3.3898e-05C1.0248 0.00106979 1.14261 0.0258366 1.25215 0.072889C1.36168 0.119941 1.46075 0.188338 1.54357 0.274086L4.5 3.23052L7.45643 0.274086C7.53925 0.188338 7.63832 0.119941 7.74785 0.072889C7.85739 0.0258366 7.9752 0.00106979 8.09441 3.3898e-05C8.21361 -0.00100199 8.33183 0.0217135 8.44217 0.0668554C8.5525 0.111997 8.65275 0.178661 8.73704 0.262957C8.82134 0.347254 8.888 0.447494 8.93314 0.55783C8.97829 0.668165 9.001 0.786386 8.99997 0.905595C8.99893 1.0248 8.97416 1.14261 8.92711 1.25215C8.88006 1.36168 8.81166 1.46075 8.72591 1.54357Z" fill="#fff"/></svg>