<svg width="16" height="18" viewBox="0 0 16 18" fill="none" xmlns="http://www.w3.org/2000/svg"><path d="M15.9663 8.42907C15.697 10.1292 14.8889 11.5774 13.6094 12.7738C12.8686 13.4034 12.1952 14.0961 11.4544 14.7257C10.3769 15.7962 9.29947 16.9296 8.22199 18C5.93236 15.7962 3.71008 13.9072 1.62247 11.8293C0.410317 10.5699 -0.0610772 8.93281 0.00626484 7.23271C0.0736069 3.58064 3.104 0.432313 6.87515 0.0545137C11.1177 -0.386253 14.7542 1.88055 15.8316 5.59558C16.101 6.35117 15.9663 8.30314 15.9663 8.42907ZM8.01997 9.94027C9.43415 9.94027 10.6463 8.86984 10.6463 7.54754C10.6463 6.22524 9.43415 5.09184 8.08731 5.09184C6.74047 5.09184 5.46097 6.22524 5.46097 7.48457C5.46097 8.80687 6.60578 9.94027 8.01997 9.94027Z" fill="#D91967"/></svg>