<svg width="20" height="17" viewBox="0 0 20 17" fill="none" xmlns="http://www.w3.org/2000/svg"><path d="M7.96926 17V13.5869C6.90946 13.5271 6.10758 13.3297 5.56365 12.995C5.01838 12.6602 4.63615 12.1172 4.41564 11.366C4.19512 10.6148 4.0842 9.53971 4.0842 8.14209H7.96926V0H0V7.74063C0 10.9387 0.673573 13.2807 2.01938 14.7682C3.36652 16.2556 5.34982 17 7.96926 17ZM20 17V13.5869C18.9402 13.5271 18.1383 13.3379 17.5944 13.0181C17.0491 12.6983 16.6562 12.1553 16.413 11.3891C16.1697 10.623 16.0494 9.54107 16.0494 8.14345H20V0H11.9866V7.74063C11.9866 10.9387 12.6562 13.2807 13.9953 14.7682C15.3344 16.2556 17.3365 17 20 17Z" fill="#DA1F6B"/></svg>