<svg width="17" height="18" viewBox="0 0 17 18" fill="none" xmlns="http://www.w3.org/2000/svg"><path d="M10.625 11.5714C14.1405 11.5714 17 8.97629 17 5.78571C17 2.59513 14.1401 0 10.625 0H4.25C3.46773 0 2.83333 0.575759 2.83333 1.28571V9H1.41667C0.634401 9 0 9.57455 0 10.2857C0 10.9969 0.634401 11.5714 1.41667 11.5714H2.83333V12.8571H1.41667C0.634401 12.8571 0 13.4329 0 14.1429C0 14.8528 0.634401 15.4286 1.41667 15.4286H2.83333V16.7143C2.83333 17.4242 3.46773 18 4.25 18C5.03227 18 5.66667 17.4242 5.66667 16.7143V15.4286H12.75C13.5323 15.4286 14.1667 14.8528 14.1667 14.1429C14.1667 13.4329 13.5323 12.8571 12.75 12.8571H5.66667V11.5714H10.625ZM5.66667 2.57143H10.625C12.5773 2.57143 14.1667 4.01384 14.1667 5.78571C14.1667 7.55759 12.5773 9 10.625 9H5.66667V2.57143Z" fill="#D91967"/></svg>