<svg width="13" height="14" viewBox="0 0 13 14" fill="none" xmlns="http://www.w3.org/2000/svg"><g clip-path="url(#clip0_228_6972)"><path d="M11.7593 5.82319C11.5039 5.82319 11.2688 5.9028 11.0714 6.03549C10.9031 5.54602 10.4416 5.19514 9.90172 5.19514C9.6463 5.19514 9.41121 5.27475 9.21384 5.40744C9.0455 4.91797 8.58401 4.56708 8.04416 4.56708C7.81777 4.56708 7.60589 4.629 7.42594 4.73515V2.67702C7.42594 1.9841 6.87157 1.41797 6.1866 1.41797C5.50162 1.41797 4.94726 1.98115 4.94726 2.67702V8.02285L3.87046 7.20314C3.23192 6.71662 2.32636 6.78149 1.76038 7.35647C1.39758 7.72504 1.39758 8.32361 1.76038 8.68924L6.16919 13.1682C6.69453 13.7019 7.39691 13.9967 8.13994 13.9967H9.59116C11.469 13.9967 12.9957 12.4458 12.9957 10.538V7.0793C12.9986 6.38637 12.4413 5.82319 11.7593 5.82319ZM12.3775 10.541C12.3775 12.1008 11.1265 13.3716 9.59116 13.3716H8.13994C7.55945 13.3716 7.0167 13.1416 6.60745 12.7259L2.19865 8.24695C2.07675 8.12311 2.07675 7.92555 2.19865 7.80171C2.39021 7.6071 2.64563 7.50685 2.90394 7.50685C3.11292 7.50685 3.3248 7.57172 3.49894 7.70735L5.06916 8.90449C5.16204 8.97525 5.28975 8.98705 5.39423 8.93397C5.49872 8.8809 5.56548 8.7718 5.56548 8.65385V2.67702C5.56548 2.32909 5.84411 2.04897 6.1837 2.04897C6.52328 2.04897 6.80192 2.33204 6.80192 2.67702V7.3948C6.80192 7.56877 6.94123 7.7103 7.11248 7.7103C7.28372 7.7103 7.42304 7.56877 7.42304 7.3948V5.82319C7.42304 5.47525 7.70167 5.19514 8.04126 5.19514C8.38084 5.19514 8.65947 5.4782 8.65947 5.82319V7.3948C8.65947 7.56877 8.79879 7.7103 8.97004 7.7103C9.14128 7.7103 9.2806 7.56877 9.2806 7.3948V6.45124C9.2806 6.10331 9.55923 5.82319 9.89881 5.82319C10.2384 5.82319 10.517 6.10626 10.517 6.45124V7.3948C10.517 7.56877 10.6564 7.7103 10.8276 7.7103C10.9988 7.7103 11.1382 7.56877 11.1382 7.3948V7.0793C11.1382 6.73136 11.4168 6.45124 11.7564 6.45124C12.096 6.45124 12.3746 6.73431 12.3746 7.0793L12.3775 10.541Z" fill="#1C1C1C"/><path d="M11.3063 2.21146L12.3715 1.10573L11.3063 0L11.1583 0.153328L11.971 0.99663H8.04688V1.21483H11.971L11.1583 2.05813L11.3063 2.21146Z" fill="#D91967"/><path d="M1.06519 0L0 1.10573L1.06519 2.21146L1.21322 2.05813L0.400536 1.21483H4.32463V0.99663H0.400536L1.21322 0.153328L1.06519 0Z" fill="#D91967"/></g><defs><clipPath id="clip0_228_6972"><path fill="#fff" d="M0 0H13V14H0z"/></clipPath></defs></svg>