<svg width="50" height="50" viewBox="0 0 50 50" fill="none" xmlns="http://www.w3.org/2000/svg"><rect width="50" height="50" rx="25" fill="#05A0EB"/><g clip-path="url(#clip0_95_2991)"><path d="M22.2405 27.2032L21.8919 31.9482C22.3882 31.9482 22.6055 31.741 22.8639 31.49L25.1936 29.3267L30.0212 32.7609C30.9071 33.239 31.5305 32.988 31.7684 31.9681L34.9389 17.5418C35.2219 16.2749 34.4673 15.7769 33.6059 16.0916L14.9766 23.0199C13.7051 23.498 13.7257 24.1872 14.7592 24.498L19.5212 25.9362L30.5831 19.2111C31.104 18.8765 31.5757 19.0597 31.186 19.3984L22.2405 27.2032Z" fill="#fff"/></g><defs><clipPath id="clip0_95_2991"><path fill="#fff" transform="translate(14 16)" d="M0 0H21V17H0z"/></clipPath></defs></svg>