<svg width="20" height="20" viewBox="0 0 20 20" fill="none" xmlns="http://www.w3.org/2000/svg"><path d="M10 0C4.48578 0 0 4.48578 0 10C0 15.5142 4.48578 20 10 20C15.5142 20 20 15.5142 20 10C20 4.48578 15.5142 0 10 0ZM14.7559 15.1724C14.5934 15.3349 14.38 15.4167 14.1667 15.4167C13.9534 15.4167 13.7399 15.3349 13.5776 15.1724L9.41086 11.0059C9.25415 10.8501 9.16672 10.6383 9.16672 10.4167V5C9.16672 4.53918 9.53995 4.16672 10 4.16672C10.4601 4.16672 10.8333 4.53918 10.8333 5V10.0717L14.7559 13.9941C15.0816 14.3201 15.0816 14.8466 14.7559 15.1724Z" fill="#D91967"/></svg>