<svg width="50" height="50" viewBox="0 0 50 50" fill="none" xmlns="http://www.w3.org/2000/svg"><rect width="50" height="50" rx="25" fill="#01A7EE"/><path d="M32.9192 27.0308C32.5302 26.5386 32.6427 26.323 32.9192 25.8871C32.9239 25.8825 36.1255 21.4579 36.4583 19.9581C36.6224 19.4097 36.4583 19.0113 35.6661 19.0113H33.0411C32.3708 19.0113 32.0661 19.3582 31.902 19.7425C31.902 19.7425 30.5661 22.939 28.677 25.0107C28.0676 25.6106 27.7864 25.8028 27.4536 25.8028C27.2895 25.8028 27.0364 25.6106 27.0364 25.0622V19.9487C27.0364 19.2925 26.8489 19.002 26.2958 19.002H22.1707C21.7536 19.002 21.5004 19.3066 21.5004 19.5925C21.5004 20.2159 22.4473 20.3565 22.5457 22.1094V25.9059C22.5457 26.7355 22.3957 26.8902 22.0582 26.8902C21.1676 26.8902 19.002 23.6796 17.7176 20.005C17.4551 19.2925 17.202 19.002 16.527 19.002H13.902C13.152 19.002 13.002 19.3488 13.002 19.7331C13.002 20.4127 13.8926 23.8061 17.1504 28.2869C19.3207 31.3428 22.377 33.002 25.1567 33.002C26.8254 33.002 27.0317 32.6317 27.0317 31.999C27.0317 29.079 26.8817 28.8025 27.7161 28.8025C28.1051 28.8025 28.7708 28.9946 30.3317 30.471C32.113 32.2193 32.4083 33.002 33.4067 33.002H36.0317C36.7817 33.002 37.1567 32.6317 36.9411 31.9099C36.4396 30.382 33.0692 27.237 32.9192 27.0308Z" fill="#fff"/></svg>