<svg width="50" height="50" viewBox="0 0 50 50" fill="none" xmlns="http://www.w3.org/2000/svg"><rect width="50" height="50" rx="25" fill="#12C868"/><g clip-path="url(#clip0_95_2986)"><path d="M25 14C18.9273 14 14 18.9273 14 25C14 27.4316 14.7871 29.6713 16.1181 31.4951L14.7167 35.6417L19.0873 34.2787C20.7958 35.3665 22.8243 36 25 36C31.0727 36 36 31.0727 36 25C36 18.9273 31.0727 14 25 14ZM30.0361 30.8999C28.0396 31.6998 25.6591 30.9255 23.0547 28.9482C20.4503 26.9709 18.7353 24.1873 18.6201 22.1204C18.5049 20.0535 20.1879 19.0105 21.103 19.0169C22.018 19.0233 23.0227 21.9476 23.0355 22.3956C23.0483 22.8499 21.9156 23.6562 21.8709 24.0401C21.8261 24.4241 23.413 26.3182 24.0849 26.8301C24.7504 27.3357 26.1262 28.3083 26.8365 28.2187C27.5404 28.1227 28.0076 26.7086 28.4555 26.619C28.9034 26.5294 31.3479 27.7452 31.591 28.0588C31.8342 28.3787 31.8086 30.196 30.0361 30.8999Z" fill="#fff"/></g><defs><clipPath id="clip0_95_2986"><path fill="#fff" transform="translate(14 14)" d="M0 0H22V22H0z"/></clipPath></defs></svg>